<svg width="512" height="512" viewBox="0 0 512 512" fill="none" xmlns="http://www.w3.org/2000/svg">
<rect width="512" height="512" rx="50" fill="#D4A373"/>
<path d="M320.2 166.2C320.2 158.467 319.4 152.6 317.8 148.6C316.467 144.6 313.4 141.8 308.6 140.2C303.8 138.6 296.6 137.8 287 137.8C286.2 137.8 285.8 137 285.8 135.4C285.8 133.8 286.2 133 287 133C293.933 133 301.8 133.267 310.6 133.8C319.667 134.067 330.333 134.2 342.6 134.2C352.2 134.2 361.667 134.067 371 133.8C380.6 133.267 388.867 133 395.8 133C396.6 133 397 133.8 397 135.4C397 137 396.6 137.8 395.8 137.8C387 137.8 380.333 138.6 375.8 140.2C371.267 141.533 368.2 144.2 366.6 148.2C365.267 151.933 364.6 157.667 364.6 165.4V350.6C364.6 358.333 365.267 364.2 366.6 368.2C368.2 372.2 371.267 374.867 375.8 376.2C380.333 377.533 387 378.2 395.8 378.2C396.6 378.2 397 379 397 380.6C397 382.2 396.6 383 395.8 383C388.867 383 380.6 382.867 371 382.6C361.667 382.333 352.2 382.2 342.6 382.2C330.333 382.2 319.667 382.333 310.6 382.6C301.8 382.867 293.933 383 287 383C286.2 383 285.8 382.2 285.8 380.6C285.8 379 286.2 378.2 287 378.2C296.6 378.2 303.8 377.533 308.6 376.2C313.4 374.867 316.467 372.2 317.8 368.2C319.4 364.2 320.2 358.333 320.2 350.6V166.2ZM167.4 258.6V247.4H340.6V258.6H167.4ZM146.6 350.6V165.4C146.6 157.667 145.8 151.933 144.2 148.2C142.867 144.2 139.933 141.533 135.4 140.2C131.133 138.6 124.6 137.8 115.8 137.8C115 137.8 114.6 137 114.6 135.4C114.6 133.8 115 133 115.8 133C122.733 133 130.6 133.267 139.4 133.8C148.2 134.067 157.4 134.2 167 134.2C179.267 134.2 189.933 134.067 199 133.8C208.333 133.267 216.733 133 224.2 133C224.733 133 225 133.8 225 135.4C225 137 224.733 137.8 224.2 137.8C214.867 137.8 207.8 138.6 203 140.2C198.2 141.8 195 144.6 193.4 148.6C191.8 152.6 191 158.467 191 166.2V350.6C191 358.333 191.8 364.2 193.4 368.2C195 372.2 198.2 374.867 203 376.2C207.8 377.533 214.867 378.2 224.2 378.2C224.733 378.2 225 379 225 380.6C225 382.2 224.733 383 224.2 383C216.467 383 208.067 382.867 199 382.6C189.933 382.333 179.267 382.2 167 382.2C157.4 382.2 148.067 382.333 139 382.6C129.933 382.867 121.933 383 115 383C114.467 383 114.2 382.2 114.2 380.6C114.2 379 114.467 378.2 115 378.2C124.067 378.2 130.733 377.533 135 376.2C139.533 374.867 142.6 372.2 144.2 368.2C145.8 364.2 146.6 358.333 146.6 350.6Z" fill="white"/>
</svg>
